<?xml version="1.0" encoding="UTF-8"?>
<svg width="142px" height="26px" viewBox="0 0 142 26" version="1.1" xmlns="http://www.w3.org/2000/svg" xmlns:xlink="http://www.w3.org/1999/xlink">
    <title>doz-logo</title>
    <g id="do-logo" stroke="none" stroke-width="1" fill="none" fill-rule="evenodd">
        <g id="doz-logo">
            <circle id="b" fill="#589CDE" cx="29" cy="13" r="13"></circle>
            <path d="M0,26 C7.7319865,26 14,20.1797017 14,13 C14,5.82029825 7.7319865,0 0,0 C0,0 0,26 0,26 Z" id="r" fill="#E64D4D"></path>
            <g id="doz" transform="translate(47.740000, 2.294000)" fill="#000000" fill-rule="nonzero" opacity="0.796200707">
                <path d="M0.522,20.3 C0.841,20.561 1.421,20.706 2.204,20.706 L6.67,20.706 C9.106,20.706 10.817,19.865 11.774,18.212 C12.731,16.559 13.224,14.036 13.224,10.614 C13.224,7.134 12.905,4.959 11.977,3.103 C11.02,1.247 9.222,0.406 6.467,0.406 L2.204,0.406 C0.609,0.406 0,0.841 0,2.117 L0,18.995 C0,19.604 0.174,20.039 0.522,20.3 Z M6.119,3.335 C8.12,3.335 8.758,5.568 8.758,10.585 C8.758,15.602 8.149,17.777 6.38,17.777 L4.35,17.777 L4.35,3.335 L6.119,3.335 Z" id="Shape"></path>
                <path d="M16.156,19.749 C16.881,20.59 17.925,20.996 19.288,20.996 C20.941,20.996 21.782,20.416 22.565,19.256 C22.681,19.053 23,19.053 23.029,19.285 C23.145,20.561 23.493,20.851 24.856,20.851 C26.103,20.851 26.712,20.271 26.712,19.14 L26.712,10.614 C26.712,8.526 26.335,7.076 25.581,6.235 C24.798,5.394 23.377,4.988 21.26,4.988 C17.983,4.988 15.837,5.771 15.837,7.395 C15.837,8.526 16.156,9.077 16.823,9.077 C16.91,9.077 17.345,8.961 18.157,8.758 C18.94,8.555 19.694,8.439 20.39,8.439 C22.014,8.439 22.507,9.019 22.507,10.73 L22.507,11.629 C21.579,11.513 20.854,11.455 20.303,11.455 C16.823,11.455 15.083,13.079 15.083,16.298 C15.083,17.777 15.431,18.908 16.156,19.749 Z M18.911,15.921 C18.911,14.384 19.578,13.775 21.057,13.775 C21.55,13.775 22.014,13.833 22.507,13.92 L22.507,17.284 C21.956,17.777 21.376,18.038 20.767,18.038 C19.52,18.038 18.911,17.342 18.911,15.921 Z" id="Shape"></path>
                <path d="M29.586,6.873 L29.586,19.14 C29.586,20.387 30.224,20.851 31.732,20.851 C33.24,20.851 33.878,20.387 33.878,19.14 L33.878,8.99 C34.545,8.584 35.183,8.381 35.792,8.381 C36.981,8.381 37.474,8.845 37.474,10.614 L37.474,19.14 C37.474,20.387 38.112,20.851 39.62,20.851 C41.128,20.851 41.766,20.387 41.766,19.14 L41.766,10.382 C41.766,6.438 40.519,4.988 37.735,4.988 C36.024,4.988 34.777,5.684 33.936,7.105 C33.878,7.221 33.791,7.279 33.704,7.279 C33.675,7.279 33.53,7.308 33.501,7.105 C33.472,5.481 33.124,5.162 31.703,5.162 C30.224,5.162 29.586,5.626 29.586,6.873 Z" id="Path"></path>
                <path d="M44.292,8.758 L45.539,8.758 L45.539,16.936 C45.539,19.691 46.554,21.025 49.57,21.025 C51.774,21.025 52.876,20.3 52.876,18.821 C52.876,17.864 52.499,17.371 51.716,17.371 C51.368,17.371 50.846,17.545 50.527,17.545 C49.976,17.545 49.715,17.226 49.715,16.559 L49.715,8.787 L51.716,8.787 C52.644,8.787 52.905,8.497 52.905,6.902 C52.905,5.51 52.557,5.278 51.716,5.278 L49.715,5.278 L49.715,1.972 C49.715,0.725 49.106,0.261 47.627,0.261 C46.235,0.261 45.539,0.841 45.539,1.972 L45.539,5.278 L44.292,5.278 C43.654,5.278 43.335,5.829 43.335,6.931 C43.335,8.149 43.654,8.758 44.292,8.758 Z" id="Path"></path>
                <path d="M55.663,19.082 C56.678,20.387 58.389,21.025 60.796,21.025 C62.217,21.025 63.435,20.822 64.421,20.416 C65.407,20.039 65.9,19.488 65.9,18.763 C65.9,17.661 65.523,17.11 64.769,17.11 C64.624,17.11 64.16,17.226 63.377,17.487 C62.594,17.748 61.898,17.893 61.231,17.893 C59.23,17.893 58.534,16.907 58.389,14.094 L63.812,14.094 C65.581,14.094 66.103,13.688 66.103,12.209 C66.103,9.86 65.697,8.062 64.914,6.815 C64.131,5.597 62.681,4.988 60.564,4.988 C56.243,4.988 54.126,7.54 54.126,12.992 C54.126,15.747 54.648,17.777 55.663,19.082 Z M58.911,8.584 C59.23,7.859 59.781,7.511 60.564,7.511 C61.231,7.511 61.695,7.83 61.985,8.439 C62.246,9.048 62.391,10.208 62.42,11.861 L58.36,11.861 C58.389,10.382 58.592,9.309 58.911,8.584 Z" id="Shape"></path>
                <path d="M67.904,10.614 C67.904,13.485 68.049,15.283 68.629,17.11 C68.89,18.038 69.296,18.763 69.789,19.314 C70.775,20.416 72.399,21.112 74.69,21.112 C77.213,21.112 78.953,20.242 79.968,18.531 C80.983,16.82 81.476,14.181 81.476,10.614 C81.476,7.047 81.157,4.843 80.229,2.871 C79.272,0.928 77.474,0 74.69,0 C72.109,0 70.34,0.87 69.383,2.581 C68.397,4.321 67.904,6.989 67.904,10.614 Z M72.834,4.64 C73.153,3.538 73.762,2.987 74.69,2.987 C75.618,2.987 76.227,3.538 76.546,4.64 C76.865,5.742 77.01,7.714 77.01,10.585 C77.01,13.456 76.865,15.428 76.575,16.501 C76.256,17.574 75.647,18.125 74.69,18.125 C73.733,18.125 73.124,17.574 72.834,16.501 C72.515,15.428 72.37,13.456 72.37,10.585 C72.37,7.714 72.515,5.742 72.834,4.64 Z" id="Shape"></path>
                <path d="M83.422,20.242 C83.712,20.561 84.205,20.706 84.901,20.706 L92.499,20.706 C93.746,20.706 94.094,20.097 94.094,18.821 C94.094,17.748 93.572,17.226 92.499,17.226 L88.265,17.226 L88.265,16.878 L93.34,9.164 C94.036,8.12 94.152,7.801 94.152,7.076 C94.152,5.887 93.514,5.278 92.267,5.278 L84.785,5.278 C83.509,5.278 83.074,5.829 83.074,7.018 C83.074,8.178 83.48,8.787 84.785,8.787 L88.874,8.787 L88.874,9.106 L83.741,16.907 C83.219,17.69 82.958,18.357 82.958,18.85 C82.958,19.488 83.103,19.952 83.422,20.242 Z" id="Path"></path>
            </g>
        </g>
    </g>
</svg>